# xmcd
# 
# Track frame offsets:
#     150
#     16849
#     43389
#     62075
#     79556
#     100726
#     121761
#     137454
#     154414
#     191999
# 
# Disc length: 4446
# 
# Revision: 2
# Processed by: cddbd v1.5.2PL0 Copyright (c) Steve Scherf et al.
# Submitted via: fre:ac v1.1beta1pre5
# 
DISCID=7f115c0a
DTITLE=Cracker - Countrysides
DYEAR=2003
DGENRE=Alternative
TTITLE0=Truckload Of Art
TTITLE1=Duty Free
TTITLE2=Up Against The Wall Redneck Mothers
TTITLE3=Sinaloa Cowboys
TTITLE4=Family Tradition
TTITLE5=The Bottle Let Me Down
TTITLE6=Reasons To Quit
TTITLE7=Buenas Noches From A Lonely Room
TTITLE8=Ain't Gonna Suck Itself
TTITLE9=DATA
EXTD=
EXTT0=
EXTT1=
EXTT2=
EXTT3=
EXTT4=
EXTT5=
EXTT6=
EXTT7=
EXTT8=
EXTT9=
PLAYORDER=
